<?xml version="1.0"?>
<svg xmlns="http://www.w3.org/2000/svg" id="Layer_1" data-name="Layer 1" viewBox="0 0 200 200" style="fill: #ff6000"><defs><style></style></defs><title>Icons_expand</title><path class="cls-1" d="M158.62,87.23a1.16,1.16,0,0,0,0-.18A60.25,60.25,0,0,0,120.1,43.47l-.22-.07a59.85,59.85,0,0,0-37.3-.81l-.1,0A60.12,60.12,0,0,0,40,100a59.52,59.52,0,0,0,4.32,22.3.79.79,0,0,0,.11.29,60.12,60.12,0,0,0,51.1,37.23l.18,0h0c1.41.1,2.82.17,4.25.17a60,60,0,0,0,58.62-72.77Zm-82.4,65.85a58.46,58.46,0,0,1-30-31c2.49-5.79,4-5.49,7.22-4.8s7.78,1.65,15.2-2.58c1.46-.84,3-.47,4.69,1.07C79,121.13,82.91,138.55,76.22,153.08ZM75.77,52.71c-2.94,4.14-6,8.42-8,13.25-3.91,9.53-.67,12,1.94,14,1.82,1.39,3,2.31,2,5.46C69.38,92.91,52.41,95.07,42,95.2A58.31,58.31,0,0,1,80.85,45.07C79.31,47.69,77.52,50.24,75.77,52.71ZM94.62,42.17s0-.07,0-.1c1.76-.16,3.54-.25,5.34-.25a58.39,58.39,0,0,1,9.69.82v0c0,.14.15,3.58-2.56,4.77-3.49,1.55-13,2-13.94.22S93.91,43.13,94.62,42.17Zm5.38,116c-1.27,0-2.52-.05-3.77-.13-1.55-2.49-2.85-5.65-1.74-6.94a.6.6,0,0,0,.14-.21c.57-1.22.87-1.15,2.3-.81,1.8.42,4.54,1.06,8.57-1.83,3.41-2.45,6.37-3.42,8.78-2.87,3.3.76,5.2,4.24,6.58,6.77.37.68.69,1.27,1,1.74A57.82,57.82,0,0,1,100,158.18Zm-2.54-40.79a3.08,3.08,0,0,1,2.52-.56c3.41.74,5.37,1.93,5.37,3.26,0,.37,0,.75,0,1.13,0,1.91.07,4.29-.75,4.8-.28.17-1,.31-2.92-.69-4.29-2.27-5.51-3.33-5.35-5.91h0A2.71,2.71,0,0,1,97.46,117.39Zm50.85-17.12c-2,.59-3.92-.17-5.75-2.25a10.55,10.55,0,0,1-1.53-3.6c-.84-2.82-2-6.69-6.57-5.78a5.45,5.45,0,0,0-3.77,2.23c-1.32,2.09-.57,5,.38,8.79a48.86,48.86,0,0,1,1.56,8.11c.62,7.41-.27,19.78-5.26,23.5-1.68,1.24-3.68,1.39-6.11.43-3.77-1.49-4.38-7.8-4.83-12.41a32,32,0,0,0-.58-4.29c-1.36-5.48-4.45-5.73-7.44-6a12.05,12.05,0,0,1-4.6-1C95.13,103.6,87.7,92.7,90.3,80.39c.71-3.38,4-11.09,6.58-10.66,1.72.29,1.66,3,1.38,6.77-.25,3.42-.49,6.65,1.56,7.91a3.89,3.89,0,0,0,3.31.46c3.69-1.15,6.63-7.78,9.22-13.64,1.51-3.39,3.06-6.9,4.16-7.69a9.77,9.77,0,0,1,4.52-1.7c2.76-.47,4.44-1.14,4.59-6.38.09-2.86-2.07-6.47-3.81-9.38a58.39,58.39,0,0,1,35,41.34C155.92,92.72,152.35,99.1,148.31,100.27Z"/></svg>
