<?xml version="1.0"?>
<svg xmlns="http://www.w3.org/2000/svg" id="Layer_1" data-name="Layer 1" viewBox="0 0 200 200" style="fill: #ff6000"><defs><style></style></defs><title>Icons_expand</title><path class="cls-1" d="M70.76,75.9c11.5,0,12.36,9.16,12.36,23.14a1,1,0,1,0,2,0c0-14,.86-23.14,12.36-23.14a1,1,0,0,0,0-2c-11.5,0-12.36-9.16-12.36-23.13a1,1,0,0,0-2,0c0,14-.86,23.13-12.36,23.13a1,1,0,0,0,0,2ZM84.12,65.07c1,4.49,3.14,8.15,7.42,9.83-4.28,1.69-6.39,5.35-7.42,9.84-1-4.49-3.14-8.15-7.42-9.84C81,73.22,83.08,69.56,84.12,65.07Z"/><path class="cls-1" d="M166,85.09a1,1,0,0,0-.86-.69l-45.88-4.32L100.92,37.75a1,1,0,0,0-.92-.6,1,1,0,0,0-.91.6L92.56,52.86l-6.73,15.5,3.5,4.17,7,2.38-7,2.37-3.5,5.25-1.71,7.16-2.2-8.41-1.17-1.17-10.9,1h0l-1.66.16h0L34.91,84.4a1,1,0,0,0-.57,1.75l34.58,30.48-10.07,45a1,1,0,0,0,.39,1,1,1,0,0,0,1.1.05L100,139.22l39.66,23.49a1.06,1.06,0,0,0,.51.14,1,1,0,0,0,.59-.19,1,1,0,0,0,.39-1l-10.07-45,34.58-30.48A1,1,0,0,0,166,85.09ZM99.61,60.25a1,1,0,0,1,1.31.53l12.25,28.34a1,1,0,0,1-.52,1.32,1.14,1.14,0,0,1-.4.08,1,1,0,0,1-.92-.6L99.09,61.57A1,1,0,0,1,99.61,60.25Zm44,32.92-22.71,20,6.61,29.56a1,1,0,0,1-.39,1,1,1,0,0,1-1.1.06L100,128.4,74,143.83a1.06,1.06,0,0,1-.51.14,1,1,0,0,1-.51-1.86l26.56-15.73a1,1,0,0,1,1,0l24.57,14.55-6.23-27.88a1,1,0,0,1,.31-1l23.16-20.41a1,1,0,1,1,1.32,1.5Z"/></svg>
