<?xml version="1.0"?>
<svg xmlns="http://www.w3.org/2000/svg" id="Layer_1" data-name="Layer 1" viewBox="0 0 200 200" style="fill: #ff6000"><defs><style></style></defs><title>Icons_expand</title><path class="cls-1" d="M125.88,143.31a1,1,0,0,0,0-2H66a1,1,0,0,0,0,2Z"/><path class="cls-1" d="M129.66,150.26H62.19a3.63,3.63,0,0,0-3.62,3.62v13.44a3.63,3.63,0,0,0,3.62,3.62h67.47a3.63,3.63,0,0,0,3.62-3.62V153.88A3.62,3.62,0,0,0,129.66,150.26Z"/><path class="cls-1" d="M134.47,68.38c-7.28-12.6-15.73-23.53-23.82-30.78C102.3,30.12,95.22,27.43,90.72,30c-3.41,2-4.84,6.74-4.48,13.33a.33.33,0,0,0,0,.1s0,.06,0,.1a54.06,54.06,0,0,0,1.12,7.82c2.25,23.9-8.58,34.11-24.21,48.86-10.74,10.13-15,17.48-13,22.48,2.52,6.35,14,7.65,30.43,7.65h9.73a5.71,5.71,0,1,0,0-2H80.62c-14.39-.73-18.05-3.85-18.94-5.65-.59-1.18-.37-2.56.67-4.1,4.44-6.56,21.79-13.53,36.69-12.33,8.43.68,16.88,4.21,26.15,11,5,4.57,9.7,7.65,13.71,8.72a11.75,11.75,0,0,0,3,.44,7.54,7.54,0,0,0,3.84-1C154.87,120.2,149.9,95.14,134.47,68.38Zm10.31,55.34a7,7,0,0,1-5.36.34,22.49,22.49,0,0,1-6.18-2.93l0,0q-3.59-3.09-7-5.57a110.54,110.54,0,0,1-14.31-16.77c5.92-.29,17.57,2,27.14,6.21a1.14,1.14,0,0,0,.4.08,1,1,0,0,0,.41-1.91c-10.47-4.64-23.48-6.94-29.28-6.27-2.23-3.26-4.42-6.72-6.53-10.35L125.2,74a1,1,0,1,0-1-1.72L103,84.79c-1.71-3-3.3-6.07-4.74-9.06,3-4.9,7.44-16.72,6.25-32.57a1,1,0,0,0-2,.15c1.06,14.22-2.48,25-5.3,30.22A111.94,111.94,0,0,1,89.31,50.8c-.24-2.43-.6-5-1.11-7.7h0c-.33-5.68.78-9.74,3.52-11.33h0a5.59,5.59,0,0,1,2.84-.7c3.73,0,8.9,2.79,14.76,8,7.93,7.11,16.24,17.86,23.41,30.29C147.11,94.31,152.63,119.19,144.78,123.72Z"/></svg>
