<?xml version="1.0"?>
<svg xmlns="http://www.w3.org/2000/svg" id="Layer_1" data-name="Layer 1" viewBox="0 0 200 200" style="fill: #ff6000"><defs><style></style></defs><title>Icons_expand</title><path class="cls-1" d="M165.71,102.83a1,1,0,0,0-.71-.71L96.52,83.77l0-.07L69.9,57.13a7.47,7.47,0,0,0,.24-1.83A7.15,7.15,0,0,0,68,50.22l-12-12a7.19,7.19,0,0,0-10.16,0l-7.66,7.66a7.19,7.19,0,0,0,0,10.16l12,12a7.16,7.16,0,0,0,5.08,2.1,7.45,7.45,0,0,0,1.82-.24L83.7,96.47l.07,0L102.12,165a1,1,0,0,0,.71.71,1.17,1.17,0,0,0,.26,0,1,1,0,0,0,.71-.3l61.65-61.65A1,1,0,0,0,165.71,102.83Zm-67.91,11a1,1,0,0,1-1.41,0,1,1,0,0,1,0-1.41l16.06-16.06a1,1,0,0,1,1.41,1.41Zm30.49,14.43a12.35,12.35,0,1,1,3.62-8.74A12.29,12.29,0,0,1,128.29,128.29Z"/><path class="cls-1" d="M70.31,45.34a1.66,1.66,0,1,0-1.66-1.66A1.67,1.67,0,0,0,70.31,45.34Z"/><path class="cls-1" d="M62.54,37.57a1.66,1.66,0,1,0-1.66-1.66A1.66,1.66,0,0,0,62.54,37.57Z"/><path class="cls-1" d="M43.68,68.65a1.66,1.66,0,1,0,1.66,1.66A1.66,1.66,0,0,0,43.68,68.65Z"/><path class="cls-1" d="M35.91,60.88a1.66,1.66,0,1,0,1.66,1.66A1.67,1.67,0,0,0,35.91,60.88Z"/></svg>
