<?xml version="1.0"?>
<svg xmlns="http://www.w3.org/2000/svg" id="Layer_1" data-name="Layer 1" viewBox="0 0 200 200" style="fill: #ff6000"><defs><style></style></defs><title>Icons_expand</title><path class="cls-1" d="M109.34,175.55a1,1,0,0,1-1-1v-1.13a1,1,0,0,1,.64-.93,22.93,22.93,0,0,0,13.89-16.61,23.6,23.6,0,0,0-6.13-21.76,33.74,33.74,0,0,0-3.24-3,23.5,23.5,0,0,1-9.23-18c-19.21,11.71-13.59,36-13.53,36.23a1,1,0,0,1-1.52,1.06C83,146.37,82,138.6,81.91,134.42a24.35,24.35,0,0,0,7.62,36.75,1,1,0,0,1,.52.88v1.5a1,1,0,0,1-.37.78,1,1,0,0,1-.84.2c-25.16-5.65-44.49-27.44-47-53A60.7,60.7,0,0,1,59.27,72.45a1,1,0,0,1,1.14-.19,1,1,0,0,1,.57,1c0,.27-2.64,26.81,13.46,39.75a106.15,106.15,0,0,1-.6-32.32C76.32,63.15,85,39.16,112.05,24.57a1,1,0,0,1,1.47,1c0,.25-2.81,25.15,20.32,43.65a81.55,81.55,0,0,1,7.95,7.27A59.66,59.66,0,0,1,155,138c-7.29,20.54-24.74,34.92-45.53,37.53Z"/><path class="cls-1" d="M109.34,174.42a1,1,0,0,1-.93-.64,1,1,0,0,1,.57-1.29,22.93,22.93,0,0,0,13.89-16.61,23.6,23.6,0,0,0-6.13-21.76,33.74,33.74,0,0,0-3.24-3,23.5,23.5,0,0,1-9.23-18c-19.21,11.71-13.59,36-13.53,36.23a1,1,0,0,1-1.52,1.06C83,146.37,82,138.6,81.91,134.42a24.35,24.35,0,0,0,7.62,36.75,1,1,0,1,1-1,1.76A26.35,26.35,0,0,1,82.28,131a1,1,0,0,1,1.71.81c0,.11-.95,9.74,4.34,15.31-1-7.21-1.63-26.8,16.53-36.58a1,1,0,0,1,1.46,1c0,.42-1.13,10.39,8.43,18a35.38,35.38,0,0,1,3.44,3.15,25.59,25.59,0,0,1,6.63,23.58,24.91,24.91,0,0,1-15.12,18A.89.89,0,0,1,109.34,174.42Z"/><path class="cls-1" d="M89.05,174.55a1,1,0,0,1-1-1v-1.5a1,1,0,0,1,2,0v1.5A1,1,0,0,1,89.05,174.55Z"/><path class="cls-1" d="M109.34,175.55a1,1,0,0,1-1-1v-1.13a1,1,0,0,1,2,0v1.13A1,1,0,0,1,109.34,175.55Z"/></svg>
