<?xml version="1.0"?>
<svg xmlns="http://www.w3.org/2000/svg" data-name="Layer 1" viewBox="0 0 200 200" style="fill: #ff6000"><defs><style></style></defs><title>Icons_expand</title><path class="cls-1" d="M87.46,79.42a10.31,10.31,0,1,0,10.3,10.31A10.32,10.32,0,0,0,87.46,79.42Z"/><path class="cls-1" d="M118.44,80.08a10.31,10.31,0,0,0-10.3,10.3v14.19a10.31,10.31,0,0,0,20.61,0V90.38A10.31,10.31,0,0,0,118.44,80.08Z"/><path class="cls-1" d="M160.17,99.62a13.54,13.54,0,0,0-4.23-24.22A13.62,13.62,0,0,0,137.17,56a10.77,10.77,0,0,0-9.53-2.59,12.12,12.12,0,0,0-1.34.39,21.16,21.16,0,0,0-3-3.68,10.63,10.63,0,0,0-7-2.77h0a10.61,10.61,0,0,0-7.31,3.09,11.2,11.2,0,0,0-2.23,3.07A11.92,11.92,0,0,0,99,51.9,18.57,18.57,0,0,0,79,40.19,18.93,18.93,0,0,0,62.65,61.4c.05.4.12.79.2,1.19a12.59,12.59,0,0,0-2.81,0,12.17,12.17,0,0,0-10.5,13.62,12,12,0,0,0,1.74,4.83,6.3,6.3,0,0,0-5.13,5.22A6.93,6.93,0,0,0,48.22,93a17.06,17.06,0,0,0-1.78,33.25,21.93,21.93,0,0,0-.31,3.62,21,21,0,0,0,36.8,13.94,17.37,17.37,0,0,0,3.16.65,19.48,19.48,0,0,0,15.53-5.67,11.77,11.77,0,0,0,3.39-7.7,37.7,37.7,0,0,1,16.46,36.28c-.07.47-.15.94-.23,1.41a1,1,0,0,0,.56,1.08.9.9,0,0,0,.42.1,1,1,0,0,0,.77-.35c.15-.18,14.72-17.68,11.23-40.85a19.78,19.78,0,0,0,11.12,3.45,20.66,20.66,0,0,0,2.07-.11,19.68,19.68,0,0,0,12.76-32.49Zm-60.41,4.95a12.31,12.31,0,0,1-24.61,0,1,1,0,0,1,2,0,10.31,10.31,0,0,0,20.61,0V96.43a12.29,12.29,0,1,1,2-6.7Zm31,0a12.3,12.3,0,0,1-24.57.88,1.7,1.7,0,0,1,0-.22V90.38a12.3,12.3,0,0,1,24.56-.87.79.79,0,0,1,.05.22Z"/></svg>
